<svg width="1200" height="720" viewBox="0 0 1200 720" fill="none" xmlns="http://www.w3.org/2000/svg">
  <defs>
    <linearGradient id="bgAbout" x1="0" y1="0" x2="1" y2="1">
      <stop offset="0%" stop-color="#E8F0FA"/>
      <stop offset="100%" stop-color="#C9DBF0"/>
    </linearGradient>
  </defs>
  <rect width="1200" height="720" fill="url(#bgAbout)"/>
  <rect x="86" y="98" width="1028" height="524" rx="34" fill="#FFFFFF"/>
  <rect x="146" y="164" width="332" height="26" rx="13" fill="#1B3A66"/>
  <rect x="146" y="208" width="270" height="14" rx="7" fill="#5B789B"/>
  <rect x="146" y="258" width="430" height="284" rx="24" fill="#F1F6FD"/>
  <circle cx="248" cy="356" r="54" fill="#9FC1E4"/>
  <rect x="324" y="324" width="198" height="18" rx="9" fill="#305782"/>
  <rect x="324" y="358" width="154" height="12" rx="6" fill="#6A86A7"/>
  <rect x="324" y="390" width="176" height="12" rx="6" fill="#6A86A7"/>
  <rect x="632" y="164" width="420" height="378" rx="24" fill="#0F2748"/>
  <rect x="682" y="222" width="150" height="246" rx="18" fill="#2D6EA3"/>
  <rect x="850" y="268" width="150" height="200" rx="18" fill="#6DA8D6"/>
  <rect x="146" y="568" width="906" height="18" rx="9" fill="#CFDDF0"/>
</svg>
