<svg width="1200" height="720" viewBox="0 0 1200 720" fill="none" xmlns="http://www.w3.org/2000/svg">
  <rect width="1200" height="720" fill="#EAF2FB"/>
  <rect x="88" y="88" width="1024" height="544" rx="32" fill="#FFFFFF"/>
  <g stroke="#C8DBEF" stroke-width="2">
    <path d="M150 180H1048"/>
    <path d="M150 260H1048"/>
    <path d="M150 340H1048"/>
    <path d="M150 420H1048"/>
    <path d="M150 500H1048"/>
    <path d="M260 150V570"/>
    <path d="M420 150V570"/>
    <path d="M580 150V570"/>
    <path d="M740 150V570"/>
    <path d="M900 150V570"/>
  </g>
  <circle cx="600" cy="360" r="106" fill="#2D6EA3" fill-opacity="0.18"/>
  <path d="M600 280C550 280 510 320 510 370C510 430 600 520 600 520C600 520 690 430 690 370C690 320 650 280 600 280ZM600 410C578 410 560 392 560 370C560 348 578 330 600 330C622 330 640 348 640 370C640 392 622 410 600 410Z" fill="#1B3A66"/>
</svg>
